<svg width="26" height="23" viewBox="0 0 26 23" fill="none" xmlns="http://www.w3.org/2000/svg">
<path d="M13.8238 2.87537L12.8003 3.88337L11.7763 2.87537C9.3263 0.463875 5.3543 0.463875 2.9043 2.87537C2.3226 3.44421 1.86041 4.12353 1.54486 4.87345C1.22932 5.62337 1.06677 6.42877 1.06677 7.24237C1.06677 8.05598 1.22932 8.86138 1.54486 9.6113C1.86041 10.3612 2.3226 11.0405 2.9043 11.6094L12.8003 21.3514L22.6963 11.6094C23.278 11.0405 23.7402 10.3612 24.0557 9.6113C24.3713 8.86138 24.5338 8.05598 24.5338 7.24237C24.5338 6.42877 24.3713 5.62337 24.0557 4.87345C23.7402 4.12353 23.278 3.44421 22.6963 2.87537C20.2463 0.463875 16.2738 0.463875 13.8238 2.87537Z" stroke="black" stroke-width="2.1335" stroke-linecap="round"/>
</svg>
