<svg width="16" height="20" viewBox="0 0 16 20" fill="none" xmlns="http://www.w3.org/2000/svg">
<path d="M2.29224 13.0373C1.94209 13.0373 1.6524 13.3111 1.62427 13.6623L1.62134 13.718L1.62231 14.0754C1.62244 15.3191 2.22577 16.254 3.29419 16.9133C4.39232 17.5907 5.97398 17.9621 7.80005 17.9621C9.62611 17.9621 11.2078 17.5907 12.3059 16.9133C13.3369 16.2772 13.9342 15.3849 13.9758 14.2082L13.9778 14.0754V13.718C13.9777 13.3593 13.7054 13.0684 13.3625 13.0402V13.0393L13.302 13.0373H2.29224ZM7.80005 0.149609C10.4736 0.149609 12.6379 2.34568 12.6379 5.05C12.6379 7.75429 10.4736 9.95039 7.80005 9.95039C5.12653 9.95039 2.96216 7.75429 2.96216 5.05C2.96216 2.34568 5.12653 0.149609 7.80005 0.149609ZM7.80005 1.63789C5.94315 1.63789 4.43481 3.16345 4.43481 5.05C4.43481 6.93653 5.94315 8.46211 7.80005 8.46211C9.65695 8.46211 11.1653 6.93653 11.1653 5.05C11.1653 3.16345 9.65695 1.63789 7.80005 1.63789ZM15.4504 14.0754C15.4503 15.9188 14.5057 17.2986 13.0725 18.1828C11.6683 19.0491 9.7925 19.4504 7.80005 19.4504C5.8076 19.4504 3.93184 19.0491 2.52759 18.1828C1.13812 17.3256 0.207511 16.002 0.152588 14.2404V14.2385L0.149658 14.0773V13.718C0.149793 12.557 1.05239 11.6078 2.18872 11.5529L2.19165 11.552L2.28833 11.55H13.3079C14.3856 11.55 15.2753 12.3546 15.427 13.4006L15.4475 13.6135V13.6164L15.4504 13.715V14.0754Z" fill="black" stroke="black" stroke-width="0.3"/>
</svg>
