<svg width="17" height="20" viewBox="0 0 17 20" fill="none" xmlns="http://www.w3.org/2000/svg">
<path d="M7.56639 3.10066C7.40921 2.69792 7.09426 2.36706 6.68614 2.17593C6.27801 1.9848 5.80765 1.94789 5.37153 2.07278C3.30416 2.67271 1.85934 4.34251 2.16955 6.27428C2.51863 8.41779 3.29043 10.481 4.44515 12.3576C5.58923 14.2291 7.08949 15.8865 8.87098 17.247C10.473 18.4668 12.721 18.1309 14.3061 16.731C14.6395 16.4365 14.8418 16.0339 14.8721 15.6045C14.9025 15.1751 14.7587 14.7508 14.4697 14.4173L13.3351 13.1115C13.1078 12.8489 12.802 12.6566 12.4572 12.5596C12.1124 12.4626 11.7446 12.4654 11.4015 12.5675L8.78387 13.3474L8.32705 12.9035C7.7517 12.3414 7.24825 11.7179 6.82698 11.0457C6.41899 10.3654 6.10076 9.64083 5.87935 8.88797L5.70299 8.29804L7.7215 6.54824C7.98857 6.31594 8.17592 6.01392 8.25957 5.68083C8.34322 5.34773 8.31937 4.99873 8.19106 4.67847L7.56639 3.10066ZM4.74686 0.161007C5.70119 -0.113805 6.73106 -0.0347107 7.62543 0.382082C8.51981 0.798874 9.21096 1.52181 9.55727 2.40274L10.1798 3.97855C10.4553 4.67075 10.5054 5.4245 10.3238 6.14363C10.1421 6.86275 9.73695 7.51463 9.15995 8.01607L8.11882 8.91796C8.25268 9.26592 8.43328 9.66387 8.66701 10.0498C8.90073 10.4298 9.17269 10.7757 9.42129 11.0577L10.7599 10.6578C11.5082 10.4354 12.3103 10.4295 13.0622 10.6409C13.8142 10.8524 14.4814 11.2713 14.9775 11.8436L16.1121 13.1495C16.7427 13.8752 17.057 14.7992 16.9915 15.7346C16.926 16.6701 16.4857 17.5473 15.7594 18.1889C13.6474 20.0546 10.1989 20.8285 7.53664 18.8008C5.55266 17.2863 3.8817 15.4411 2.60724 13.3574C1.3188 11.2645 0.457637 8.96319 0.068179 6.57224C-0.441759 3.38662 1.98682 0.960912 4.74686 0.163007" fill="black"/>
</svg>
