<svg width="27" height="27" viewBox="0 0 27 27" fill="none" xmlns="http://www.w3.org/2000/svg">
<path d="M10.1267 24.7504C10.748 24.7504 11.2517 24.2468 11.2517 23.6254C11.2517 23.0041 10.748 22.5004 10.1267 22.5004C9.50539 22.5004 9.00171 23.0041 9.00171 23.6254C9.00171 24.2468 9.50539 24.7504 10.1267 24.7504Z" stroke="black" stroke-width="2" stroke-linecap="round" stroke-linejoin="round"/>
<path d="M22.4983 24.7504C23.1196 24.7504 23.6233 24.2468 23.6233 23.6254C23.6233 23.0041 23.1196 22.5004 22.4983 22.5004C21.877 22.5004 21.3733 23.0041 21.3733 23.6254C21.3733 24.2468 21.877 24.7504 22.4983 24.7504Z" stroke="black" stroke-width="2" stroke-linecap="round" stroke-linejoin="round"/>
<path d="M1.12329 1.12456H5.62329L8.63829 16.1883C8.74117 16.7063 9.02294 17.1715 9.43428 17.5026C9.84562 17.8338 10.3603 18.0097 10.8883 17.9996H21.8233C22.3513 18.0097 22.866 17.8338 23.2773 17.5026C23.6886 17.1715 23.9704 16.7063 24.0733 16.1883L25.8733 6.74956H6.74829" stroke="black" stroke-width="2" stroke-linecap="round" stroke-linejoin="round"/>
</svg>
