<svg width="11" height="11" viewBox="0 0 11 11" fill="none" xmlns="http://www.w3.org/2000/svg">
<path d="M5.76151 0.693174L7.25417 3.46138L10.227 4.09419C10.279 4.1053 10.3273 4.13069 10.3669 4.16775C10.4065 4.20481 10.436 4.25222 10.4524 4.30515C10.4688 4.35807 10.4715 4.41462 10.4603 4.46901C10.4491 4.52339 10.4242 4.57368 10.3884 4.61474L8.33812 6.95849L8.68266 10.1179C8.68867 10.1732 8.68057 10.2292 8.65917 10.2801C8.63778 10.3311 8.60386 10.3752 8.56089 10.4079C8.51792 10.4407 8.46743 10.4608 8.41458 10.4664C8.36173 10.472 8.30842 10.4628 8.26008 10.4397L5.50013 9.11966L2.74041 10.4397C2.69206 10.4628 2.63872 10.472 2.58585 10.4664C2.53298 10.4608 2.48247 10.4406 2.43949 10.4079C2.39651 10.3751 2.3626 10.331 2.34122 10.28C2.31985 10.229 2.31178 10.173 2.31783 10.1176L2.66238 6.95825L0.612092 4.61474C0.576249 4.57368 0.551439 4.52339 0.540194 4.46901C0.528949 4.41462 0.531672 4.35807 0.548085 4.30515C0.564498 4.25222 0.594013 4.20481 0.633618 4.16775C0.673223 4.13069 0.7215 4.1053 0.773521 4.09419L3.74632 3.46138L5.23899 0.693174C5.26513 0.644661 5.30309 0.604297 5.34899 0.576211C5.3949 0.548125 5.4471 0.533325 5.50025 0.533325C5.5534 0.533325 5.6056 0.548125 5.6515 0.576211C5.6974 0.604297 5.73537 0.644661 5.76151 0.693174Z" stroke="black" stroke-width="1.06675" stroke-miterlimit="10"/>
</svg>
